<svg xmlns="http://www.w3.org/2000/svg" viewBox="0 0 941.42 245.97"><defs><style>.cls-1{font-size:111.34px;fill:#f05646;font-family:UniversalSerif, Universal Serif;letter-spacing:0.08em;}.cls-2{letter-spacing:0.08em;}.cls-3{fill:#f7b161;}.cls-4{fill:none;stroke:#f7b161;stroke-linecap:round;stroke-miterlimit:10;stroke-width:6px;}</style></defs><g id="Layer_2" data-name="Layer 2"><g id="Layer_1-2" data-name="Layer 1"><text class="cls-1" transform="translate(379.06 181.46)">ANDI<tspan class="cls-2" x="354.27" y="0">N</tspan><tspan x="459.95" y="0">O</tspan></text><path class="cls-3" d="M235.27,150.31a3.69,3.69,0,1,0,3.66-3.7A3.68,3.68,0,0,0,235.27,150.31Z"/><path class="cls-3" d="M198.45,150.48a3.68,3.68,0,1,0-3.66,3.69A3.67,3.67,0,0,0,198.45,150.48Z"/><path class="cls-3" d="M232.76,141.12a3.68,3.68,0,1,0,6.36-3.71A3.68,3.68,0,0,0,232.76,141.12Z"/><path class="cls-3" d="M201,159.67a3.68,3.68,0,1,0-6.36,3.71A3.68,3.68,0,0,0,201,159.67Z"/><path class="cls-3" d="M231,133a3.68,3.68,0,1,0-5,1.37A3.67,3.67,0,0,0,231,133Z"/><path class="cls-3" d="M202.71,167.74a3.68,3.68,0,1,0,5-1.36A3.68,3.68,0,0,0,202.71,167.74Z"/><path class="cls-3" d="M216.78,132a3.68,3.68,0,1,0-3.7-3.67A3.68,3.68,0,0,0,216.78,132Z"/><path class="cls-3" d="M216.94,168.8a3.68,3.68,0,1,0,3.7,3.66A3.68,3.68,0,0,0,216.94,168.8Z"/><path class="cls-3" d="M208.91,129.46a3.68,3.68,0,1,0-1.32,5A3.67,3.67,0,0,0,208.91,129.46Z"/><path class="cls-3" d="M224.81,171.33a3.68,3.68,0,1,0,1.32-5A3.68,3.68,0,0,0,224.81,171.33Z"/><path class="cls-3" d="M200.88,141.26a3.68,3.68,0,1,0-5,1.37A3.68,3.68,0,0,0,200.88,141.26Z"/><path class="cls-3" d="M232.84,159.53a3.68,3.68,0,1,0,5-1.37A3.68,3.68,0,0,0,232.84,159.53Z"/><path class="cls-3" d="M216.89,157.76a7.36,7.36,0,0,0,7.33-7.4c-.43-9.76-14.38-9.7-14.72.07A7.37,7.37,0,0,0,216.89,157.76Z"/><path class="cls-3" d="M109.34,143.51a7.36,7.36,0,0,0-7.33,7.4c.43,9.76,14.38,9.7,14.72-.07A7.36,7.36,0,0,0,109.34,143.51Z"/><path class="cls-3" d="M257.35,150.21a40.54,40.54,0,0,0-40.67-40.31l-107.49.48c-53.72,2.47-53.34,79,.36,81L217,190.89A40.54,40.54,0,0,0,257.35,150.21Zm-114.85.52a33.16,33.16,0,0,1-33,33.27c-44-1.62-44.23-64.25-.3-66.26l84.23-.37a40.48,40.48,0,0,0-17.08,33.2,3.68,3.68,0,1,0,7.36,0c1.62-44,64.25-44.22,66.26-.29a33.16,33.16,0,0,1-33,33.27l-84.23.38a40.48,40.48,0,0,0,17.08-33.21,3.68,3.68,0,0,0-7.36,0Z"/><path class="cls-3" d="M159.34,128.56a3.68,3.68,0,1,0,3.66-3.69A3.67,3.67,0,0,0,159.34,128.56Z"/><path class="cls-3" d="M166.76,143.26A3.68,3.68,0,1,0,163.1,147,3.68,3.68,0,0,0,166.76,143.26Z"/><path class="cls-3" d="M159.47,158a3.69,3.69,0,1,0,3.66-3.7A3.68,3.68,0,0,0,159.47,158Z"/><path class="cls-3" d="M166.89,172.7a3.68,3.68,0,1,0-3.66,3.7A3.67,3.67,0,0,0,166.89,172.7Z"/><path class="cls-3" d="M127.78,150.79a3.69,3.69,0,1,0,3.66-3.7A3.68,3.68,0,0,0,127.78,150.79Z"/><path class="cls-3" d="M91,151a3.68,3.68,0,1,0-3.66,3.69A3.67,3.67,0,0,0,91,151Z"/><path class="cls-3" d="M125.27,141.6a3.68,3.68,0,1,0,1.32-5A3.68,3.68,0,0,0,125.27,141.6Z"/><path class="cls-3" d="M93.47,160.15a3.68,3.68,0,1,0-1.32,5A3.68,3.68,0,0,0,93.47,160.15Z"/><path class="cls-3" d="M123.52,133.52a3.68,3.68,0,1,0-5,1.37A3.67,3.67,0,0,0,123.52,133.52Z"/><path class="cls-3" d="M95.22,168.22a3.68,3.68,0,1,0,5-1.37A3.68,3.68,0,0,0,95.22,168.22Z"/><path class="cls-3" d="M109.29,132.47a3.68,3.68,0,1,0-3.7-3.67A3.68,3.68,0,0,0,109.29,132.47Z"/><path class="cls-3" d="M109.45,169.28a3.68,3.68,0,1,0,3.7,3.66A3.68,3.68,0,0,0,109.45,169.28Z"/><path class="cls-3" d="M101.42,129.94a3.68,3.68,0,1,0-1.32,5A3.67,3.67,0,0,0,101.42,129.94Z"/><path class="cls-3" d="M117.32,171.81a3.68,3.68,0,1,0,1.32-5A3.68,3.68,0,0,0,117.32,171.81Z"/><path class="cls-3" d="M93.39,141.74a3.68,3.68,0,1,0-5,1.37A3.68,3.68,0,0,0,93.39,141.74Z"/><path class="cls-3" d="M125.35,160a3.68,3.68,0,0,0,6.39,3.65,3.68,3.68,0,0,0-6.39-3.65Z"/><path class="cls-3" d="M238.93,103.41a3.52,3.52,0,0,1-2.06-.67c-31.16-22.88-65.49-29.88-102-20.81A140.35,140.35,0,0,0,88.72,102.7a3.5,3.5,0,1,1-4.23-5.57c.78-.6,19.62-14.73,48.39-21.93,26.65-6.67,67-8.28,108.13,21.89a3.5,3.5,0,0,1-2.08,6.32Z"/><path class="cls-3" d="M96.42,97.15a3.51,3.51,0,0,1-3-1.71L80.62,74.06a3.5,3.5,0,1,1,6-3.59l12.8,21.38a3.5,3.5,0,0,1-1.21,4.8A3.44,3.44,0,0,1,96.42,97.15Z"/><path class="cls-3" d="M116.74,87.5a3.5,3.5,0,0,1-3.14-1.94L93.28,44.89a3.5,3.5,0,1,1,6.26-3.12l20.32,40.66a3.5,3.5,0,0,1-1.56,4.7A3.53,3.53,0,0,1,116.74,87.5Z"/><path class="cls-3" d="M142.36,80.23a3.5,3.5,0,0,1-3.3-2.33L120.71,26.12a3.5,3.5,0,0,1,6.6-2.34l18.35,51.78a3.5,3.5,0,0,1-3.3,4.67Z"/><path class="cls-3" d="M163.22,78.16a3.5,3.5,0,0,1-3.5-3.47l-.45-71.17A3.5,3.5,0,0,1,162.75,0h0a3.5,3.5,0,0,1,3.5,3.48l.45,71.16a3.49,3.49,0,0,1-3.47,3.52Z"/><path class="cls-3" d="M231.42,97.15a3.44,3.44,0,0,1-1.79-.5,3.5,3.5,0,0,1-1.21-4.8l12.79-21.38a3.5,3.5,0,0,1,6,3.59L234.43,95.44A3.51,3.51,0,0,1,231.42,97.15Z"/><path class="cls-3" d="M211.1,87.5A3.5,3.5,0,0,1,208,82.43l20.31-40.66a3.5,3.5,0,0,1,6.27,3.12L214.24,85.56A3.51,3.51,0,0,1,211.1,87.5Z"/><path class="cls-3" d="M186.48,79.23a3.43,3.43,0,0,1-1.17-.2,3.5,3.5,0,0,1-2.13-4.47l18.35-51.78a3.5,3.5,0,1,1,6.6,2.34L189.78,76.9A3.5,3.5,0,0,1,186.48,79.23Z"/><path class="cls-3" d="M162.67,219.25c-8.9,0-18.93-2.47-29-9.88a2.5,2.5,0,1,1,3-4c27.11,19.9,53,.84,54.08,0a2.5,2.5,0,0,1,3,4C193.5,209.49,180.34,219.25,162.67,219.25Z"/><path class="cls-3" d="M193.31,220.21a2.49,2.49,0,0,1-2.15-1.22l-4.79-8a2.5,2.5,0,0,1,4.29-2.56l4.79,8a2.49,2.49,0,0,1-2.14,3.78Z"/><path class="cls-3" d="M188.51,231.05a2.5,2.5,0,0,1-2.23-1.38l-7.62-15.24a2.5,2.5,0,0,1,4.48-2.23l7.61,15.23a2.5,2.5,0,0,1-2.24,3.62Z"/><path class="cls-3" d="M178.17,237.94a2.49,2.49,0,0,1-2.35-1.67l-6.88-19.4a2.5,2.5,0,0,1,4.72-1.67l6.87,19.4a2.51,2.51,0,0,1-2.36,3.34Z"/><path class="cls-3" d="M163.65,246a2.5,2.5,0,0,1-2.5-2.48L161,216.83a2.52,2.52,0,0,1,2.49-2.52h0a2.49,2.49,0,0,1,2.5,2.49l.17,26.66a2.49,2.49,0,0,1-2.48,2.51Z"/><path class="cls-3" d="M133.14,220.21a2.47,2.47,0,0,1-1.28-.35,2.5,2.5,0,0,1-.86-3.43l4.79-8a2.5,2.5,0,0,1,4.29,2.56l-4.79,8A2.49,2.49,0,0,1,133.14,220.21Z"/><path class="cls-3" d="M137.93,231.05a2.47,2.47,0,0,1-1.11-.26,2.5,2.5,0,0,1-1.12-3.36l7.61-15.23a2.5,2.5,0,0,1,4.47,2.23l-7.61,15.24A2.51,2.51,0,0,1,137.93,231.05Z"/><path class="cls-3" d="M147.9,238.31a2.47,2.47,0,0,1-.84-.14,2.5,2.5,0,0,1-1.52-3.19l6.87-19.4a2.5,2.5,0,0,1,4.72,1.67l-6.88,19.4A2.49,2.49,0,0,1,147.9,238.31Z"/><polyline class="cls-4" points="267.97 175.31 267.97 141.11 267.97 124.06 320.21 124.06"/><polyline class="cls-4" points="55.24 175.31 55.24 141.11 55.24 124.06 3 124.06"/><line class="cls-4" x1="10.7" y1="142.29" x2="55.24" y2="142.29"/><line class="cls-4" x1="21.08" y1="158.79" x2="55.24" y2="158.79"/><line class="cls-4" x1="316.21" y1="142.29" x2="271.67" y2="142.29"/><line class="cls-4" x1="305.83" y1="158.79" x2="271.67" y2="158.79"/></g></g></svg>