<?xml version="1.0" encoding="utf-8"?>
<!-- Generator: Adobe Illustrator 26.0.0, SVG Export Plug-In . SVG Version: 6.00 Build 0)  -->
<svg version="1.1" id="Layer_1" xmlns="http://www.w3.org/2000/svg" xmlns:xlink="http://www.w3.org/1999/xlink" x="0px" y="0px"
	 viewBox="0 0 941.4 246" style="enable-background:new 0 0 941.4 246;" xml:space="preserve">
<style type="text/css">
	.st0{enable-background:new    ;}
	.st1{fill:#F05646;}
	.st2{fill:#F7B161;}
</style>
<g id="Layer_2_00000013188814563337514980000006215577273817840561_">
	<g id="Layer_1-2">
		<g class="st0">
			<g>
				<path class="st1" d="M411.3,104.9h26.5l38.4,78.8h-32.8l4.6-6l-3.5-8.1h-37.6l-4.1,8.1l4.6,6h-28.4l34.9-72.8L411.3,104.9z
					 M412.4,155.3h26.3l-13-28.2L412.4,155.3z"/>
			</g>
			<g>
				<path class="st1" d="M487.9,105h24.6l40.3,45.4v-39.7l-4.6-5.7h27.6l-4.8,5.9v72.7h-17.6l-42.7-46.2v40.3l4.8,5.9h-27.6l4.6-5.8
					v-66.5L487.9,105z"/>
			</g>
			<g>
				<path class="st1" d="M593.6,183.6l4.9-5.9v-66.8l-4.9-5.9h42.1c29.1,0,43.7,13.2,43.7,39.6c0,26-14.4,39-43.2,39H593.6z
					 M621.9,167.3h11.2c14.5,0,21.8-7.6,21.8-22.8c0-15.4-7.4-23.2-22.3-23.2h-10.7V167.3z"/>
			</g>
			<g>
				<path class="st1" d="M692.5,105h33l-4.6,5.7V178l4.6,5.7h-33l4.9-5.9v-66.8L692.5,105z"/>
			</g>
		</g>
		<g class="st0">
			<g>
				<path class="st1" d="M742.7,105h24.6l40.3,45.4v-39.7L803,105h27.6l-4.8,5.9v72.7h-17.6l-42.7-46.2v40.3l4.8,5.9h-27.6l4.6-5.8
					v-66.5L742.7,105z"/>
			</g>
		</g>
		<g class="st0">
			<g>
				<path class="st1" d="M889.8,103.7c29.6,0,44.5,13.6,44.5,40.9c0,26.9-14.6,40.3-43.7,40.3c-30.4,0-45.6-13.7-45.6-41.2
					C845,117.1,859.9,103.7,889.8,103.7z M869.2,143.6c0,16.5,7.1,24.7,21.2,24.7c13.1,0,19.7-7.9,19.7-23.7
					c0-16.2-6.9-24.2-20.7-24.2C875.9,120.4,869.2,128.1,869.2,143.6z"/>
			</g>
		</g>
		<g>
			<path class="st2" d="M238.9,146.6c-2,0-3.7,1.7-3.7,3.7v0c0,2,1.7,3.7,3.7,3.7c2,0,3.7-1.7,3.7-3.7
				C242.6,148.3,241,146.6,238.9,146.6C238.9,146.6,238.9,146.6,238.9,146.6z"/>
			<path class="st2" d="M194.8,154.2c2,0,3.7-1.7,3.7-3.7c0,0,0,0,0,0c0-2-1.7-3.7-3.7-3.7s-3.7,1.7-3.7,3.7
				S192.7,154.2,194.8,154.2C194.8,154.2,194.8,154.2,194.8,154.2z"/>
			<circle class="st2" cx="235.9" cy="139.3" r="3.7"/>
			<circle class="st2" cx="197.8" cy="161.5" r="3.7"/>
			<path class="st2" d="M226,134.4C226,134.4,226,134.4,226,134.4c1.8,1,4,0.4,5-1.4c1-1.8,0.4-4-1.4-5c-1.8-1-4-0.4-5,1.4
				C223.6,131.1,224.2,133.3,226,134.4z"/>
			<path class="st2" d="M207.7,166.4C207.7,166.4,207.7,166.4,207.7,166.4c-1.8-1-4-0.4-5,1.3c-1,1.8-0.4,4,1.3,5s4,0.4,5-1.3
				C210.1,169.7,209.5,167.4,207.7,166.4z"/>
			<path class="st2" d="M216.8,132C216.8,132,216.8,132,216.8,132c2,0,3.7-1.7,3.7-3.7c0-2-1.7-3.7-3.7-3.7c-2,0-3.7,1.7-3.7,3.7
				C213.1,130.4,214.7,132,216.8,132z"/>
			<path class="st2" d="M216.9,168.8C216.9,168.8,216.9,168.8,216.9,168.8c-2,0-3.7,1.7-3.7,3.7c0,2,1.7,3.7,3.7,3.7
				c2,0,3.7-1.7,3.7-3.7C220.6,170.4,219,168.8,216.9,168.8z"/>
			<path class="st2" d="M207.5,134.5C207.6,134.5,207.6,134.5,207.5,134.5c1.8-1,2.4-3.3,1.4-5c-1-1.8-3.3-2.4-5-1.4
				c-1.8,1-2.4,3.3-1.4,5C203.5,134.9,205.8,135.5,207.5,134.5z"/>
			<path class="st2" d="M226.2,166.3C226.2,166.3,226.1,166.3,226.2,166.3c-1.8,1-2.4,3.3-1.4,5c1,1.8,3.3,2.4,5,1.4
				c1.8-1,2.4-3.3,1.4-5C230.2,165.9,227.9,165.3,226.2,166.3z"/>
			<path class="st2" d="M195.9,142.6C195.9,142.6,195.9,142.6,195.9,142.6c1.8,1,4,0.4,5-1.4c1-1.8,0.4-4-1.4-5c-1.8-1-4-0.4-5,1.4
				C193.5,139.4,194.1,141.6,195.9,142.6z"/>
			<path class="st2" d="M237.9,158.2C237.9,158.2,237.8,158.2,237.9,158.2c-1.8-1-4-0.4-5,1.4c-1,1.8-0.4,4,1.4,5c1.8,1,4,0.4,5-1.4
				C240.2,161.4,239.6,159.2,237.9,158.2z"/>
			<path class="st2" d="M209.5,150.4c0,4.1,3.3,7.3,7.4,7.3c4.1,0,7.3-3.3,7.3-7.4c0,0,0,0,0,0C223.8,140.6,209.8,140.7,209.5,150.4
				z"/>
			<path class="st2" d="M109.3,143.5L109.3,143.5c-4.1,0-7.3,3.3-7.3,7.4c0,0,0,0,0,0c0.4,9.8,14.4,9.7,14.7-0.1
				C116.7,146.8,113.4,143.5,109.3,143.5z"/>
			<path class="st2" d="M216.7,109.9l-107.5,0.5c-53.7,2.5-53.3,79,0.4,81l107.5-0.5c22.4-0.1,40.4-18.3,40.4-40.7
				C257.2,127.9,239,109.8,216.7,109.9z M217,183.6l-84.2,0.4c10.8-7.6,17.1-20,17.1-33.2c0-2-1.6-3.7-3.7-3.7s-3.7,1.6-3.7,3.7l0,0
				c0.1,18.3-14.7,33.2-33,33.3c-44-1.6-44.2-64.2-0.3-66.3l84.2-0.4c-10.8,7.6-17.1,20-17.1,33.2c0,2,1.6,3.7,3.7,3.7
				c2,0,3.7-1.6,3.7-3.7c1.6-44,64.2-44.2,66.3-0.3C250,168.6,235.3,183.5,217,183.6z"/>
			<path class="st2" d="M163,132.2c2,0,3.7-1.7,3.7-3.7s-1.7-3.7-3.7-3.7c0,0,0,0,0,0c-2,0-3.7,1.7-3.7,3.7c0,0,0,0,0,0
				C159.3,130.6,161,132.2,163,132.2z"/>
			<path class="st2" d="M163.1,147c2,0,3.7-1.7,3.7-3.7c0,0,0,0,0,0c0-2-1.7-3.7-3.7-3.6c-2,0-3.7,1.7-3.6,3.7
				C159.4,145.4,161.1,147,163.1,147z"/>
			<path class="st2" d="M163.2,161.7c2,0,3.7-1.7,3.7-3.7c0-2-1.7-3.7-3.7-3.7c0,0,0,0,0,0c-2,0-3.7,1.7-3.7,3.7v0
				C159.5,160,161.1,161.7,163.2,161.7z"/>
			<path class="st2" d="M163.2,169c-2,0-3.7,1.7-3.7,3.7c0,2,1.7,3.7,3.7,3.7c2,0,3.7-1.7,3.7-3.7c0,0,0,0,0,0
				C166.9,170.7,165.2,169,163.2,169z"/>
			<path class="st2" d="M131.5,147.1C131.5,147.1,131.4,147.1,131.5,147.1c-2.1,0-3.7,1.7-3.7,3.7c0,0,0,0,0,0c0,2,1.7,3.7,3.7,3.7
				c2,0,3.7-1.7,3.7-3.7C135.2,148.7,133.5,147.1,131.5,147.1z"/>
			<path class="st2" d="M87.3,154.7c2,0,3.7-1.7,3.7-3.7c0,0,0,0,0,0c0-2-1.7-3.7-3.7-3.7c-2,0-3.7,1.7-3.7,3.7
				S85.3,154.7,87.3,154.7C87.3,154.7,87.3,154.7,87.3,154.7z"/>
			<path class="st2" d="M130.3,143c1.8-1,2.4-3.3,1.4-5c-1-1.8-3.3-2.4-5-1.4c0,0,0,0,0,0c-1.7,1-2.3,3.3-1.3,5
				C126.3,143.4,128.5,144,130.3,143z"/>
			<path class="st2" d="M88.4,158.8c-1.8,1-2.4,3.3-1.4,5c1,1.8,3.3,2.4,5,1.4c0,0,0,0,0,0c1.7-1,2.3-3.3,1.3-5
				C92.5,158.4,90.2,157.8,88.4,158.8z"/>
			<path class="st2" d="M118.5,134.9C118.5,134.9,118.5,134.9,118.5,134.9c1.8,1,4,0.4,5-1.4c1-1.8,0.4-4-1.4-5c-1.8-1-4-0.4-5,1.4
				C116.1,131.6,116.7,133.9,118.5,134.9z"/>
			<path class="st2" d="M100.2,166.9C100.2,166.9,100.2,166.9,100.2,166.9c-1.8-1-4-0.4-5,1.4c-1,1.8-0.4,4,1.4,5c1.8,1,4,0.4,5-1.4
				C102.6,170.1,102,167.9,100.2,166.9z"/>
			<path class="st2" d="M109.3,132.5C109.3,132.5,109.3,132.5,109.3,132.5c2,0,3.7-1.7,3.7-3.7c0-2-1.7-3.7-3.7-3.7
				c-2,0-3.7,1.7-3.7,3.7C105.6,130.8,107.2,132.5,109.3,132.5z"/>
			<path class="st2" d="M109.5,169.3C109.5,169.3,109.5,169.3,109.5,169.3c-2,0-3.7,1.7-3.7,3.7c0,2,1.7,3.7,3.7,3.7
				c2,0,3.7-1.7,3.7-3.7C113.1,170.9,111.5,169.3,109.5,169.3z"/>
			<path class="st2" d="M100.1,135C100.1,135,100.1,134.9,100.1,135c1.8-1,2.4-3.3,1.4-5c-1-1.8-3.3-2.4-5-1.4c-1.8,1-2.4,3.3-1.4,5
				C96,135.4,98.3,136,100.1,135z"/>
			<path class="st2" d="M118.7,166.8C118.7,166.8,118.7,166.8,118.7,166.8c-1.8,1-2.4,3.3-1.4,5c1,1.8,3.3,2.4,5,1.4
				c1.8-1,2.4-3.3,1.4-5C122.7,166.4,120.4,165.8,118.7,166.8z"/>
			<path class="st2" d="M88.4,143.1C88.4,143.1,88.4,143.1,88.4,143.1c1.8,1,4,0.4,5-1.4c1-1.8,0.4-4-1.4-5c-1.8-1-4-0.4-5,1.4
				C86,139.8,86.6,142.1,88.4,143.1z"/>
			<path class="st2" d="M130.3,158.7c-1.7-1-3.9-0.4-4.9,1.3c-1,1.8-0.3,4,1.5,5c1.7,1,3.9,0.4,4.9-1.3
				C132.7,161.9,132.1,159.6,130.3,158.7z"/>
			<path class="st2" d="M91.6,92.4c-4.3,2.6-6.8,4.5-7.1,4.7c-0.1,0.1-0.2,0.1-0.2,0.2c-1.5,1.2-1.7,3.4-0.5,4.9s3.4,1.7,4.9,0.5
				c9.2-6.4,19.1-11.6,29.5-15.6c0,0,0,0,0,0c0,0,0,0,0,0c0,0,0,0,0,0c5.4-2.1,10.9-3.8,16.6-5.2c9.5-2.4,18.8-3.6,28-3.8
				c0.1,0,0.2,0,0.4,0h0c0,0,0,0,0,0c0.2,0,0.3,0,0.5-0.1c15.7-0.2,31,2.8,45.7,8.9c0.2,0.1,0.5,0.3,0.8,0.3c9.1,3.9,18,9,26.7,15.4
				c0.6,0.4,1.3,0.7,2.1,0.7c1.1,0,2.2-0.5,2.8-1.4c1.1-1.6,0.8-3.7-0.7-4.9c-1.8-1.3-3.6-2.5-5.3-3.7l11.5-19.3
				c0.9-1.6,0.4-3.6-1.1-4.6c-1.6-1.1-3.8-0.6-4.9,1l-11.4,19.1c-4.7-2.8-9.3-5.2-13.9-7.3l18.7-37.4c0.9-1.7,0.2-3.8-1.6-4.7
				c-1.7-0.9-3.8-0.2-4.7,1.6l-18.9,37.8c-6.3-2.5-12.5-4.3-18.6-5.6l17.3-48.9c0.6-1.8-0.3-3.8-2.1-4.5c-1.8-0.6-3.8,0.3-4.5,2.1
				l-17.7,49.9c-5.9-0.9-11.7-1.4-17.2-1.5l-0.4-67.7c0-1.9-1.6-3.5-3.5-3.5c0,0,0,0,0,0c-1.9,0-3.5,1.6-3.5,3.5l0.4,67.8
				c-5.3,0.2-10.3,0.7-15,1.5l-17.4-49c-0.6-1.8-2.6-2.8-4.5-2.1c-1.8,0.6-2.8,2.6-2.1,4.5l17,48c-1.7,0.4-3.3,0.7-4.8,1.1
				c-5.1,1.3-10,2.8-14.4,4.4L99.5,41.8c0-0.1-0.1-0.2-0.1-0.2c-0.9-1.7-3.1-2.3-4.8-1.4c-1.7,0.9-2.3,3.1-1.4,4.8l18.6,37.3
				c-5.5,2.3-10.3,4.6-14.2,6.8l-11-18.5c-0.1-0.1-0.1-0.2-0.2-0.3c-1.1-1.6-3.2-2-4.9-1c-1.6,1.1-2,3.2-1,4.9L91.6,92.4z"/>
			<path class="st2" d="M191.9,210.6c1.1-0.7,1.8-1.2,1.8-1.2c1.1-0.8,1.3-2.4,0.5-3.5c-0.8-1.1-2.4-1.3-3.5-0.5
				c-0.4,0.3-4.1,3.1-10,5.5c-0.3,0-0.6,0.1-0.9,0.3c-0.2,0.1-0.3,0.2-0.4,0.3c-2.3,0.9-4.9,1.6-7.8,2.2c-0.4,0-0.7,0-1.1,0.1
				c-0.1,0-0.2,0.1-0.3,0.1c-1.9,0.3-4,0.5-6.1,0.6c-0.2,0-0.4-0.1-0.6-0.1c-0.2,0-0.4,0-0.6,0.1c-8,0-17-2.3-26.2-9
				c-1.1-0.8-2.7-0.6-3.5,0.5c-0.8,1.1-0.6,2.7,0.5,3.5c0.4,0.3,0.7,0.5,1.1,0.8l-3.8,6.3c0,0,0,0,0,0c-0.7,1.2-0.3,2.7,0.9,3.4
				c0.4,0.2,0.8,0.4,1.3,0.3c0.9,0,1.7-0.5,2.1-1.2l3.7-6.2c1.1,0.6,2.1,1.2,3.2,1.7l-6.5,12.9c0,0,0,0,0,0
				c-0.6,1.2-0.1,2.7,1.1,3.4c0.3,0.2,0.7,0.3,1.1,0.3c0.9,0,1.8-0.5,2.2-1.4l6.6-13.2c1.6,0.6,3.2,1.1,4.8,1.5l-6,17.1
				c-0.5,1.3,0.2,2.7,1.5,3.2c0.3,0.1,0.6,0.1,0.8,0.1c1.1,0,2-0.7,2.3-1.7l6.3-17.8c1.5,0.2,3,0.3,4.4,0.4l0.1,24.3
				c0,1.4,1.1,2.5,2.5,2.5l0,0c0,0,0,0,0,0c1.4,0,2.5-1.1,2.5-2.5l-0.2-24.3c1.2-0.1,2.4-0.2,3.6-0.4l6.2,17.5
				c0.3,1,1.3,1.7,2.3,1.7c0.3,0,0.6,0,0.8-0.1c1.3-0.5,2-1.9,1.5-3.2l-5.9-16.8c1.8-0.4,3.5-0.9,5-1.5l6.7,13.3
				c0.4,0.8,1.3,1.4,2.2,1.4v0c0.4,0,0.8-0.1,1.1-0.3c1.2-0.6,1.7-2.1,1.1-3.4l-6.4-12.9c1.2-0.5,2.3-1,3.3-1.5l3.6,6
				c0.4,0.8,1.3,1.2,2.1,1.2c0.5,0,0.9-0.1,1.3-0.4c1.2-0.7,1.6-2.2,0.8-3.4L191.9,210.6z"/>
			<path class="st2" d="M320.2,121.1H265v54.2c0,1.7,1.3,3,3,3s3-1.3,3-3v-13.6c0.2,0.1,0.5,0.1,0.7,0.1h34.2c1.7,0,3-1.3,3-3
				s-1.3-3-3-3h-34.2c-0.2,0-0.5,0-0.7,0.1v-10.7c0.2,0.1,0.5,0.1,0.7,0.1h44.5c1.7,0,3-1.3,3-3s-1.3-3-3-3h-44.5
				c-0.2,0-0.5,0-0.7,0.1v-12.3h49.2c1.7,0,3-1.3,3-3C323.2,122.4,321.9,121.1,320.2,121.1z"/>
			<path class="st2" d="M0,124.1c0,1.7,1.3,3,3,3h49.2v12.2H10.7c-1.7,0-3,1.3-3,3s1.3,3,3,3h41.5v10.5H21.1c-1.7,0-3,1.3-3,3
				s1.3,3,3,3h31.2v13.5c0,1.7,1.3,3,3,3s3-1.3,3-3v-54.2H3C1.3,121.1,0,122.4,0,124.1z"/>
		</g>
	</g>
</g>
</svg>
